<?xml version="1.0" encoding="UTF-8"?> <svg xmlns="http://www.w3.org/2000/svg" width="1920" height="917" viewBox="0 0 1920 917" fill="none"><rect x="1.5" y="1.5" width="1917" height="914" fill="white"></rect><rect x="1.5" y="1.5" width="1917" height="914" stroke="#3EF2D0" stroke-width="3"></rect><path d="M552.317 748.114H562.067L573.317 783.364H568.567L564.317 769.864H550.067L545.817 783.364H541.117L552.317 748.114ZM563.067 765.964L557.817 749.364H556.567L551.317 765.964H563.067ZM576.544 770.914C576.544 768.481 577.044 766.298 578.044 764.364C579.077 762.398 580.561 760.848 582.494 759.714C584.427 758.581 586.694 758.014 589.294 758.014C591.094 758.014 592.844 758.364 594.544 759.064C596.277 759.764 597.744 760.864 598.944 762.364C600.144 763.864 600.844 765.748 601.044 768.014H596.594C596.261 765.848 595.444 764.281 594.144 763.314C592.844 762.314 591.227 761.814 589.294 761.814C586.594 761.814 584.527 762.681 583.094 764.414C581.661 766.114 580.944 768.281 580.944 770.914C580.944 773.581 581.661 775.781 583.094 777.514C584.527 779.214 586.594 780.064 589.294 780.064C591.227 780.064 592.844 779.581 594.144 778.614C595.444 777.614 596.261 776.031 596.594 773.864H601.044C600.844 776.131 600.144 778.014 598.944 779.514C597.744 781.014 596.277 782.114 594.544 782.814C592.844 783.514 591.094 783.864 589.294 783.864C586.694 783.864 584.427 783.298 582.494 782.164C580.561 781.031 579.077 779.498 578.044 777.564C577.044 775.598 576.544 773.381 576.544 770.914ZM622.605 783.364H612.855C611.688 783.364 610.805 783.081 610.205 782.514C609.638 781.948 609.355 781.064 609.355 779.864V762.314H603.855V758.514H609.355V752.214L613.805 750.864V758.514H621.605V762.314H613.805V779.614L622.605 779.564V783.364ZM625.763 770.914C625.763 768.481 626.313 766.281 627.413 764.314C628.513 762.348 630.063 760.814 632.063 759.714C634.063 758.581 636.363 758.014 638.963 758.014C641.529 758.014 643.813 758.581 645.813 759.714C647.813 760.814 649.363 762.348 650.463 764.314C651.563 766.281 652.113 768.481 652.113 770.914C652.113 773.381 651.563 775.598 650.463 777.564C649.363 779.531 647.813 781.081 645.813 782.214C643.846 783.314 641.563 783.864 638.963 783.864C636.363 783.864 634.063 783.314 632.063 782.214C630.063 781.081 628.513 779.531 627.413 777.564C626.313 775.598 625.763 773.381 625.763 770.914ZM630.163 770.914C630.163 773.548 630.929 775.731 632.463 777.464C634.029 779.198 636.196 780.064 638.963 780.064C641.696 780.064 643.829 779.198 645.363 777.464C646.929 775.731 647.713 773.548 647.713 770.914C647.713 769.214 647.363 767.681 646.663 766.314C645.996 764.914 644.996 763.814 643.663 763.014C642.363 762.214 640.796 761.814 638.963 761.814C637.129 761.814 635.546 762.214 634.213 763.014C632.879 763.814 631.863 764.914 631.163 766.314C630.496 767.681 630.163 769.214 630.163 770.914ZM658.063 761.964C658.063 759.664 659.229 758.514 661.563 758.514H675.613V762.314H662.513V783.364H658.063V761.964ZM689.992 783.864C686.292 783.864 683.409 783.031 681.342 781.364C679.309 779.664 678.292 777.281 678.292 774.214H682.742C682.742 776.248 683.376 777.781 684.642 778.814C685.909 779.848 687.709 780.364 690.042 780.364C691.809 780.364 693.126 780.081 693.992 779.514C694.892 778.914 695.342 777.981 695.342 776.714C695.342 775.848 695.059 775.148 694.492 774.614C693.926 774.081 692.992 773.648 691.692 773.314L685.042 771.364C683.376 770.898 681.992 770.148 680.892 769.114C679.826 768.048 679.292 766.614 679.292 764.814C679.292 762.648 680.126 760.981 681.792 759.814C683.492 758.614 685.826 758.014 688.792 758.014C692.026 758.014 694.559 758.748 696.392 760.214C698.259 761.648 699.192 763.698 699.192 766.364H694.742C694.742 764.731 694.242 763.514 693.242 762.714C692.242 761.881 690.776 761.464 688.842 761.464C687.209 761.464 685.942 761.748 685.042 762.314C684.142 762.881 683.692 763.698 683.692 764.764C683.692 765.564 683.976 766.231 684.542 766.764C685.109 767.264 686.009 767.698 687.242 768.064L693.042 769.714C695.242 770.348 696.909 771.231 698.042 772.364C699.209 773.498 699.792 774.981 699.792 776.814C699.792 779.081 698.942 780.831 697.242 782.064C695.576 783.264 693.159 783.864 689.992 783.864ZM720.343 776.464C720.343 774.398 721.009 772.748 722.343 771.514C723.709 770.248 725.809 769.481 728.643 769.214L738.393 768.264C738.293 765.998 737.709 764.331 736.643 763.264C735.576 762.164 733.943 761.614 731.743 761.614C729.909 761.614 728.426 762.081 727.293 763.014C726.159 763.948 725.493 765.398 725.293 767.364H720.893C721.159 764.498 722.226 762.231 724.093 760.564C725.993 758.864 728.526 758.014 731.693 758.014C735.259 758.014 738.009 759.014 739.943 761.014C741.876 763.014 742.843 765.681 742.843 769.014V779.564H746.493V783.364H741.943C741.009 783.364 740.276 783.098 739.743 782.564C739.209 782.031 738.943 781.298 738.943 780.364V779.164L739.643 776.514H738.393C737.859 778.681 736.809 780.448 735.243 781.814C733.709 783.181 731.543 783.864 728.743 783.864C725.543 783.864 723.343 783.098 722.143 781.564C720.943 780.031 720.343 778.331 720.343 776.464ZM724.743 775.914C724.743 777.314 725.159 778.381 725.993 779.114C726.826 779.848 727.976 780.214 729.443 780.214C731.209 780.214 732.759 779.831 734.093 779.064C735.459 778.298 736.509 777.248 737.243 775.914C738.009 774.581 738.393 773.081 738.393 771.414L729.393 772.364C727.793 772.531 726.609 772.881 725.843 773.414C725.109 773.914 724.743 774.748 724.743 775.914ZM751.128 758.514H755.578V762.664L754.828 765.664H756.078C756.611 763.331 757.678 761.481 759.278 760.114C760.911 758.714 763.028 758.014 765.628 758.014C768.528 758.014 770.811 758.881 772.478 760.614C774.145 762.348 774.978 764.914 774.978 768.314V783.364H770.578V768.914C770.578 766.381 770.078 764.564 769.078 763.464C768.078 762.364 766.511 761.814 764.378 761.814C761.745 761.814 759.611 762.764 757.978 764.664C756.378 766.564 755.578 769.164 755.578 772.464V783.364H751.128V758.514ZM792.299 783.864C789.932 783.864 787.849 783.298 786.049 782.164C784.282 781.031 782.916 779.498 781.949 777.564C780.982 775.598 780.499 773.381 780.499 770.914C780.499 768.481 780.982 766.281 781.949 764.314C782.916 762.348 784.282 760.814 786.049 759.714C787.849 758.581 789.932 758.014 792.299 758.014C794.999 758.014 797.199 758.648 798.899 759.914C800.599 761.181 801.749 762.848 802.349 764.914H803.599L802.849 761.964V746.614H807.249V783.364H802.849V779.914L803.599 776.914H802.349C801.749 778.981 800.599 780.664 798.899 781.964C797.199 783.231 794.999 783.864 792.299 783.864ZM784.949 770.914C784.949 773.981 785.732 776.281 787.299 777.814C788.899 779.314 791.032 780.064 793.699 780.064C796.399 780.064 798.599 779.298 800.299 777.764C801.999 776.231 802.849 773.948 802.849 770.914C802.849 767.881 801.999 765.614 800.299 764.114C798.599 762.581 796.399 761.814 793.699 761.814C791.032 761.814 788.899 762.564 787.299 764.064C785.732 765.564 784.949 767.848 784.949 770.914ZM830.669 758.514H835.119V761.964L834.369 764.914H835.619C836.186 762.848 837.319 761.181 839.019 759.914C840.719 758.648 842.919 758.014 845.619 758.014C847.986 758.014 850.052 758.581 851.819 759.714C853.619 760.814 855.002 762.348 855.969 764.314C856.936 766.281 857.419 768.498 857.419 770.964C857.419 773.398 856.936 775.598 855.969 777.564C855.002 779.531 853.619 781.081 851.819 782.214C850.052 783.314 847.986 783.864 845.619 783.864C842.919 783.864 840.719 783.231 839.019 781.964C837.319 780.664 836.186 778.981 835.619 776.914H834.369L835.119 779.914V793.064H830.669V758.514ZM835.119 770.964C835.119 773.998 835.952 776.281 837.619 777.814C839.319 779.314 841.519 780.064 844.219 780.064C846.886 780.064 849.019 779.314 850.619 777.814C852.219 776.281 853.019 773.998 853.019 770.964C853.019 767.898 852.219 765.614 850.619 764.114C849.019 762.581 846.886 761.814 844.219 761.814C841.519 761.814 839.319 762.581 837.619 764.114C835.952 765.614 835.119 767.898 835.119 770.964ZM863.433 746.614H867.883V762.664L867.083 765.664H868.383C868.949 763.331 870.066 761.481 871.733 760.114C873.433 758.714 875.583 758.014 878.183 758.014C881.016 758.014 883.233 758.914 884.833 760.714C886.433 762.514 887.233 765.081 887.233 768.414V783.364H882.833V768.914C882.833 766.381 882.333 764.564 881.333 763.464C880.366 762.364 878.799 761.814 876.633 761.814C873.933 761.814 871.799 762.814 870.233 764.814C868.666 766.781 867.883 769.448 867.883 772.814V783.364H863.433V746.614ZM892.804 776.464C892.804 774.398 893.47 772.748 894.804 771.514C896.17 770.248 898.27 769.481 901.104 769.214L910.854 768.264C910.754 765.998 910.17 764.331 909.104 763.264C908.037 762.164 906.404 761.614 904.204 761.614C902.37 761.614 900.887 762.081 899.754 763.014C898.62 763.948 897.954 765.398 897.754 767.364H893.354C893.62 764.498 894.687 762.231 896.554 760.564C898.454 758.864 900.987 758.014 904.154 758.014C907.72 758.014 910.47 759.014 912.404 761.014C914.337 763.014 915.304 765.681 915.304 769.014V779.564H918.954V783.364H914.404C913.47 783.364 912.737 783.098 912.204 782.564C911.67 782.031 911.404 781.298 911.404 780.364V779.164L912.104 776.514H910.854C910.32 778.681 909.27 780.448 907.704 781.814C906.17 783.181 904.004 783.864 901.204 783.864C898.004 783.864 895.804 783.098 894.604 781.564C893.404 780.031 892.804 778.331 892.804 776.464ZM897.204 775.914C897.204 777.314 897.62 778.381 898.454 779.114C899.287 779.848 900.437 780.214 901.904 780.214C903.67 780.214 905.22 779.831 906.554 779.064C907.92 778.298 908.97 777.248 909.704 775.914C910.47 774.581 910.854 773.081 910.854 771.414L901.854 772.364C900.254 772.531 899.07 772.881 898.304 773.414C897.57 773.914 897.204 774.748 897.204 775.914ZM933.694 783.864C929.994 783.864 927.11 783.031 925.044 781.364C923.01 779.664 921.994 777.281 921.994 774.214H926.444C926.444 776.248 927.077 777.781 928.344 778.814C929.61 779.848 931.41 780.364 933.744 780.364C935.51 780.364 936.827 780.081 937.694 779.514C938.594 778.914 939.044 777.981 939.044 776.714C939.044 775.848 938.76 775.148 938.194 774.614C937.627 774.081 936.694 773.648 935.394 773.314L928.744 771.364C927.077 770.898 925.694 770.148 924.594 769.114C923.527 768.048 922.994 766.614 922.994 764.814C922.994 762.648 923.827 760.981 925.494 759.814C927.194 758.614 929.527 758.014 932.494 758.014C935.727 758.014 938.26 758.748 940.094 760.214C941.96 761.648 942.894 763.698 942.894 766.364H938.444C938.444 764.731 937.944 763.514 936.944 762.714C935.944 761.881 934.477 761.464 932.544 761.464C930.91 761.464 929.644 761.748 928.744 762.314C927.844 762.881 927.394 763.698 927.394 764.764C927.394 765.564 927.677 766.231 928.244 766.764C928.81 767.264 929.71 767.698 930.944 768.064L936.744 769.714C938.944 770.348 940.61 771.231 941.744 772.364C942.91 773.498 943.494 774.981 943.494 776.814C943.494 779.081 942.644 780.831 940.944 782.064C939.277 783.264 936.86 783.864 933.694 783.864ZM948.028 770.614C948.028 766.648 949.112 763.564 951.278 761.364C953.445 759.131 956.328 758.014 959.928 758.014C963.662 758.014 966.612 759.098 968.778 761.264C970.978 763.398 972.078 766.364 972.078 770.164V771.764H952.328C952.395 774.298 953.095 776.364 954.428 777.964C955.795 779.531 957.712 780.314 960.178 780.314C962.245 780.314 963.912 779.814 965.178 778.814C966.478 777.814 967.345 776.431 967.778 774.664H972.178C971.612 777.298 970.362 779.498 968.428 781.264C966.495 782.998 963.762 783.864 960.228 783.864C957.628 783.864 955.412 783.281 953.578 782.114C951.745 780.948 950.362 779.364 949.428 777.364C948.495 775.364 948.028 773.114 948.028 770.614ZM967.728 768.614C967.595 766.381 966.812 764.648 965.378 763.414C963.978 762.148 962.162 761.514 959.928 761.514C957.828 761.514 956.078 762.148 954.678 763.414C953.312 764.681 952.545 766.414 952.378 768.614H967.728ZM988.43 783.864C984.73 783.864 981.847 783.031 979.78 781.364C977.747 779.664 976.73 777.281 976.73 774.214H981.18C981.18 776.248 981.813 777.781 983.08 778.814C984.347 779.848 986.147 780.364 988.48 780.364C990.247 780.364 991.563 780.081 992.43 779.514C993.33 778.914 993.78 777.981 993.78 776.714C993.78 775.848 993.497 775.148 992.93 774.614C992.363 774.081 991.43 773.648 990.13 773.314L983.48 771.364C981.813 770.898 980.43 770.148 979.33 769.114C978.263 768.048 977.73 766.614 977.73 764.814C977.73 762.648 978.563 760.981 980.23 759.814C981.93 758.614 984.263 758.014 987.23 758.014C990.463 758.014 992.997 758.748 994.83 760.214C996.697 761.648 997.63 763.698 997.63 766.364H993.18C993.18 764.731 992.68 763.514 991.68 762.714C990.68 761.881 989.213 761.464 987.28 761.464C985.647 761.464 984.38 761.748 983.48 762.314C982.58 762.881 982.13 763.698 982.13 764.764C982.13 765.564 982.413 766.231 982.98 766.764C983.547 767.264 984.447 767.698 985.68 768.064L991.48 769.714C993.68 770.348 995.347 771.231 996.48 772.364C997.647 773.498 998.23 774.981 998.23 776.814C998.23 779.081 997.38 780.831 995.68 782.064C994.013 783.264 991.597 783.864 988.43 783.864ZM1018.78 770.914C1018.78 768.481 1019.33 766.281 1020.43 764.314C1021.53 762.348 1023.08 760.814 1025.08 759.714C1027.08 758.581 1029.38 758.014 1031.98 758.014C1034.55 758.014 1036.83 758.581 1038.83 759.714C1040.83 760.814 1042.38 762.348 1043.48 764.314C1044.58 766.281 1045.13 768.481 1045.13 770.914C1045.13 773.381 1044.58 775.598 1043.48 777.564C1042.38 779.531 1040.83 781.081 1038.83 782.214C1036.86 783.314 1034.58 783.864 1031.98 783.864C1029.38 783.864 1027.08 783.314 1025.08 782.214C1023.08 781.081 1021.53 779.531 1020.43 777.564C1019.33 775.598 1018.78 773.381 1018.78 770.914ZM1023.18 770.914C1023.18 773.548 1023.95 775.731 1025.48 777.464C1027.05 779.198 1029.21 780.064 1031.98 780.064C1034.71 780.064 1036.85 779.198 1038.38 777.464C1039.95 775.731 1040.73 773.548 1040.73 770.914C1040.73 769.214 1040.38 767.681 1039.68 766.314C1039.01 764.914 1038.01 763.814 1036.68 763.014C1035.38 762.214 1033.81 761.814 1031.98 761.814C1030.15 761.814 1028.56 762.214 1027.23 763.014C1025.9 763.814 1024.88 764.914 1024.18 766.314C1023.51 767.681 1023.18 769.214 1023.18 770.914ZM1048.26 758.514H1053.66V754.914C1053.66 752.281 1054.38 750.248 1055.81 748.814C1057.25 747.348 1059.45 746.614 1062.41 746.614H1066.71V750.414H1062.21C1060.68 750.414 1059.61 750.781 1059.01 751.514C1058.41 752.214 1058.11 753.381 1058.11 755.014V758.514H1065.31V762.314H1058.11V779.564H1065.31V783.364H1048.26V779.564H1053.66V762.314H1048.26V758.514ZM1086.7 776.464C1086.7 774.398 1087.37 772.748 1088.7 771.514C1090.07 770.248 1092.17 769.481 1095 769.214L1104.75 768.264C1104.65 765.998 1104.07 764.331 1103 763.264C1101.93 762.164 1100.3 761.614 1098.1 761.614C1096.27 761.614 1094.78 762.081 1093.65 763.014C1092.52 763.948 1091.85 765.398 1091.65 767.364H1087.25C1087.52 764.498 1088.58 762.231 1090.45 760.564C1092.35 758.864 1094.88 758.014 1098.05 758.014C1101.62 758.014 1104.37 759.014 1106.3 761.014C1108.23 763.014 1109.2 765.681 1109.2 769.014V779.564H1112.85V783.364H1108.3C1107.37 783.364 1106.63 783.098 1106.1 782.564C1105.57 782.031 1105.3 781.298 1105.3 780.364V779.164L1106 776.514H1104.75C1104.22 778.681 1103.17 780.448 1101.6 781.814C1100.07 783.181 1097.9 783.864 1095.1 783.864C1091.9 783.864 1089.7 783.098 1088.5 781.564C1087.3 780.031 1086.7 778.331 1086.7 776.464ZM1091.1 775.914C1091.1 777.314 1091.52 778.381 1092.35 779.114C1093.18 779.848 1094.33 780.214 1095.8 780.214C1097.57 780.214 1099.12 779.831 1100.45 779.064C1101.82 778.298 1102.87 777.248 1103.6 775.914C1104.37 774.581 1104.75 773.081 1104.75 771.414L1095.75 772.364C1094.15 772.531 1092.97 772.881 1092.2 773.414C1091.47 773.914 1091.1 774.748 1091.1 775.914ZM1133.84 746.614H1138.29V762.664L1137.49 765.664H1138.79C1139.36 763.331 1140.48 761.481 1142.14 760.114C1143.84 758.714 1145.99 758.014 1148.59 758.014C1151.43 758.014 1153.64 758.914 1155.24 760.714C1156.84 762.514 1157.64 765.081 1157.64 768.414V783.364H1153.24V768.914C1153.24 766.381 1152.74 764.564 1151.74 763.464C1150.78 762.364 1149.21 761.814 1147.04 761.814C1144.34 761.814 1142.21 762.814 1140.64 764.814C1139.08 766.781 1138.29 769.448 1138.29 772.814V783.364H1133.84V746.614ZM1163.21 770.914C1163.21 768.481 1163.76 766.281 1164.86 764.314C1165.96 762.348 1167.51 760.814 1169.51 759.714C1171.51 758.581 1173.81 758.014 1176.41 758.014C1178.98 758.014 1181.26 758.581 1183.26 759.714C1185.26 760.814 1186.81 762.348 1187.91 764.314C1189.01 766.281 1189.56 768.481 1189.56 770.914C1189.56 773.381 1189.01 775.598 1187.91 777.564C1186.81 779.531 1185.26 781.081 1183.26 782.214C1181.3 783.314 1179.01 783.864 1176.41 783.864C1173.81 783.864 1171.51 783.314 1169.51 782.214C1167.51 781.081 1165.96 779.531 1164.86 777.564C1163.76 775.598 1163.21 773.381 1163.21 770.914ZM1167.61 770.914C1167.61 773.548 1168.38 775.731 1169.91 777.464C1171.48 779.198 1173.65 780.064 1176.41 780.064C1179.15 780.064 1181.28 779.198 1182.81 777.464C1184.38 775.731 1185.16 773.548 1185.16 770.914C1185.16 769.214 1184.81 767.681 1184.11 766.314C1183.45 764.914 1182.45 763.814 1181.11 763.014C1179.81 762.214 1178.25 761.814 1176.41 761.814C1174.58 761.814 1173 762.214 1171.66 763.014C1170.33 763.814 1169.31 764.914 1168.61 766.314C1167.95 767.681 1167.61 769.214 1167.61 770.914ZM1195.56 758.514H1200.01V762.664L1199.26 765.664H1200.51C1201.04 763.331 1202.11 761.481 1203.71 760.114C1205.34 758.714 1207.46 758.014 1210.06 758.014C1212.96 758.014 1215.24 758.881 1216.91 760.614C1218.58 762.348 1219.41 764.914 1219.41 768.314V783.364H1215.01V768.914C1215.01 766.381 1214.51 764.564 1213.51 763.464C1212.51 762.364 1210.94 761.814 1208.81 761.814C1206.18 761.814 1204.04 762.764 1202.41 764.664C1200.81 766.564 1200.01 769.164 1200.01 772.464V783.364H1195.56V758.514ZM1224.93 770.614C1224.93 766.648 1226.02 763.564 1228.18 761.364C1230.35 759.131 1233.23 758.014 1236.83 758.014C1240.57 758.014 1243.52 759.098 1245.68 761.264C1247.88 763.398 1248.98 766.364 1248.98 770.164V771.764H1229.23C1229.3 774.298 1230 776.364 1231.33 777.964C1232.7 779.531 1234.62 780.314 1237.08 780.314C1239.15 780.314 1240.82 779.814 1242.08 778.814C1243.38 777.814 1244.25 776.431 1244.68 774.664H1249.08C1248.52 777.298 1247.27 779.498 1245.33 781.264C1243.4 782.998 1240.67 783.864 1237.13 783.864C1234.53 783.864 1232.32 783.281 1230.48 782.114C1228.65 780.948 1227.27 779.364 1226.33 777.364C1225.4 775.364 1224.93 773.114 1224.93 770.614ZM1244.63 768.614C1244.5 766.381 1243.72 764.648 1242.28 763.414C1240.88 762.148 1239.07 761.514 1236.83 761.514C1234.73 761.514 1232.98 762.148 1231.58 763.414C1230.22 764.681 1229.45 766.414 1229.28 768.614H1244.63ZM1278.49 790.014C1278.49 792.048 1277.34 793.064 1275.04 793.064H1256.04V789.264H1274.04V779.214L1274.79 776.214H1273.54C1273 778.548 1271.92 780.414 1270.29 781.814C1268.69 783.181 1266.59 783.864 1263.99 783.864C1261.09 783.864 1258.8 782.998 1257.14 781.264C1255.47 779.531 1254.64 776.964 1254.64 773.564V758.514H1259.04V772.964C1259.04 775.498 1259.54 777.314 1260.54 778.414C1261.54 779.514 1263.1 780.064 1265.24 780.064C1267.87 780.064 1269.99 779.114 1271.59 777.214C1273.22 775.314 1274.04 772.714 1274.04 769.414V758.514H1278.49V790.014ZM1284.87 758.514H1289.32V761.964L1288.57 764.914H1289.82C1290.38 762.848 1291.52 761.181 1293.22 759.914C1294.92 758.648 1297.12 758.014 1299.82 758.014C1302.18 758.014 1304.25 758.581 1306.02 759.714C1307.82 760.814 1309.2 762.348 1310.17 764.314C1311.13 766.281 1311.62 768.498 1311.62 770.964C1311.62 773.398 1311.13 775.598 1310.17 777.564C1309.2 779.531 1307.82 781.081 1306.02 782.214C1304.25 783.314 1302.18 783.864 1299.82 783.864C1297.12 783.864 1294.92 783.231 1293.22 781.964C1291.52 780.664 1290.38 778.981 1289.82 776.914H1288.57L1289.32 779.914V793.064H1284.87V758.514ZM1289.32 770.964C1289.32 773.998 1290.15 776.281 1291.82 777.814C1293.52 779.314 1295.72 780.064 1298.42 780.064C1301.08 780.064 1303.22 779.314 1304.82 777.814C1306.42 776.281 1307.22 773.998 1307.22 770.964C1307.22 767.898 1306.42 765.614 1304.82 764.114C1303.22 762.581 1301.08 761.814 1298.42 761.814C1295.72 761.814 1293.52 762.581 1291.82 764.114C1290.15 765.614 1289.32 767.898 1289.32 770.964ZM1316.63 770.914C1316.63 768.481 1317.18 766.281 1318.28 764.314C1319.38 762.348 1320.93 760.814 1322.93 759.714C1324.93 758.581 1327.23 758.014 1329.83 758.014C1332.4 758.014 1334.68 758.581 1336.68 759.714C1338.68 760.814 1340.23 762.348 1341.33 764.314C1342.43 766.281 1342.98 768.481 1342.98 770.914C1342.98 773.381 1342.43 775.598 1341.33 777.564C1340.23 779.531 1338.68 781.081 1336.68 782.214C1334.72 783.314 1332.43 783.864 1329.83 783.864C1327.23 783.864 1324.93 783.314 1322.93 782.214C1320.93 781.081 1319.38 779.531 1318.28 777.564C1317.18 775.598 1316.63 773.381 1316.63 770.914ZM1321.03 770.914C1321.03 773.548 1321.8 775.731 1323.33 777.464C1324.9 779.198 1327.07 780.064 1329.83 780.064C1332.57 780.064 1334.7 779.198 1336.23 777.464C1337.8 775.731 1338.58 773.548 1338.58 770.914C1338.58 769.214 1338.23 767.681 1337.53 766.314C1336.87 764.914 1335.87 763.814 1334.53 763.014C1333.23 762.214 1331.67 761.814 1329.83 761.814C1328 761.814 1326.42 762.214 1325.08 763.014C1323.75 763.814 1322.73 764.914 1322.03 766.314C1321.37 767.681 1321.03 769.214 1321.03 770.914ZM1364.4 783.364H1354.65C1353.49 783.364 1352.6 783.081 1352 782.514C1351.44 781.948 1351.15 781.064 1351.15 779.864V762.314H1345.65V758.514H1351.15V752.214L1355.6 750.864V758.514H1363.4V762.314H1355.6V779.614L1364.4 779.564V783.364ZM1373.46 783.864C1372.26 783.864 1371.24 783.464 1370.41 782.664C1369.61 781.831 1369.21 780.814 1369.21 779.614C1369.21 778.414 1369.61 777.414 1370.41 776.614C1371.24 775.814 1372.26 775.414 1373.46 775.414C1374.66 775.414 1375.68 775.831 1376.51 776.664C1377.34 777.464 1377.76 778.448 1377.76 779.614C1377.76 780.781 1377.34 781.781 1376.51 782.614C1375.68 783.448 1374.66 783.864 1373.46 783.864Z" fill="#222223"></path><path d="M215.448 434.62V315.088C215.448 309.956 220.8 306.579 225.432 308.788L382.253 383.576C388.325 386.472 392.191 392.599 392.191 399.326V512.899C392.191 518.007 386.885 521.385 382.257 519.223L221.486 444.105C217.802 442.384 215.448 438.685 215.448 434.62Z" stroke="#222223" stroke-width="3.83621"></path><path d="M244.478 589.507L88.2011 513.481C82.9334 510.918 82.9755 503.398 88.2715 500.895L197.822 449.107C206.253 445.122 216.02 445.089 224.478 449.019L384.016 523.14C389.365 525.625 389.411 533.214 384.091 535.764L271.793 589.587C263.152 593.728 253.094 593.699 244.478 589.507Z" stroke="#222223" stroke-width="3.83621"></path><path d="M388.019 529.092V537.488C388.019 538.963 387.173 540.307 385.845 540.946L273.629 594.893C263.543 599.742 251.788 599.688 241.747 594.747L86.5291 518.361C85.2175 517.716 84.3867 516.381 84.3867 514.919V508.412" stroke="#222223" stroke-width="3.83621"></path><path d="M284.967 556.449L146.211 488.571C144.885 487.923 144.914 486.023 146.258 485.414L203.273 459.591C206.993 457.907 211.263 457.935 214.96 459.669L353.804 524.794C355.122 525.412 355.148 527.277 353.848 527.932L297.381 556.377C293.482 558.341 288.888 558.368 284.967 556.449Z" stroke="#222223" stroke-width="1.91811"></path><path d="M1011.66 452.294C989.395 445.395 973.383 433.24 975.892 425.145L981.57 406.824C983.695 402.127 995.64 395.119 1026.42 404.659C1057.2 414.198 1063.09 426.733 1062.18 431.808L1056.51 450.129C1054 458.224 1033.92 459.193 1011.66 452.294Z" fill="white" stroke="#222223" stroke-width="3.83621"></path><ellipse cx="42.1983" cy="15.3448" rx="42.1983" ry="15.3448" transform="matrix(-0.955177 -0.296034 -0.296034 0.955177 1066.73 417.151)" stroke="#222223" stroke-width="1.91811"></ellipse><path d="M1017.05 434.889L1011.94 451.378" stroke="#222223" stroke-width="1.91811"></path><path d="M1002.96 428.514L997.851 445.004" stroke="#222223" stroke-width="1.91811"></path><path d="M1032.28 437.6L1026.6 455.921" stroke="#222223" stroke-width="1.91811"></path><path d="M1048.07 438.478L1042.39 456.799" stroke="#222223" stroke-width="1.91811"></path><path d="M989.44 420.307L983.762 438.628" stroke="#222223" stroke-width="1.91811"></path><path fill-rule="evenodd" clip-rule="evenodd" d="M972.176 361.789C985.582 355.205 1001.29 355.244 1014.66 361.893L1109.96 409.276C1116.48 412.518 1120.61 419.171 1120.61 426.452L1120.61 556.477C1120.61 563.668 1116.58 570.255 1110.19 573.54L1014.56 622.644C1000.81 629.704 984.501 629.704 970.752 622.644L875.127 573.54C868.73 570.255 864.707 563.668 864.707 556.477V426.517C864.707 419.202 868.867 412.524 875.433 409.3L972.176 361.789ZM1018.01 371.636L1096.68 410.969C1103.65 414.452 1103.65 424.392 1096.68 427.874L1018.01 467.208C1002.05 475.189 983.262 475.189 967.299 467.208L888.632 427.874C881.666 424.392 881.666 414.452 888.632 410.969L967.299 371.636C983.262 363.654 1002.05 363.654 1018.01 371.636Z" fill="white"></path><path d="M1014.66 361.893L1015.52 360.176L1015.52 360.176L1014.66 361.893ZM972.176 361.789L971.331 360.067L971.331 360.067L972.176 361.789ZM1109.96 409.276L1109.11 410.994L1109.11 410.994L1109.96 409.276ZM1120.61 426.452H1118.69H1120.61ZM1120.61 556.477H1122.52H1120.61ZM1110.19 573.54L1111.06 575.247L1111.06 575.247L1110.19 573.54ZM1014.56 622.644L1013.68 620.937L1013.68 620.937L1014.56 622.644ZM970.752 622.644L971.628 620.937L971.628 620.937L970.752 622.644ZM875.127 573.54L874.25 575.247L874.25 575.247L875.127 573.54ZM875.433 409.3L874.588 407.578L874.588 407.578L875.433 409.3ZM1096.68 410.969L1097.54 409.254L1097.54 409.254L1096.68 410.969ZM1018.01 371.636L1017.16 373.351L1017.16 373.351L1018.01 371.636ZM1096.68 427.874L1097.54 429.59L1097.54 429.59L1096.68 427.874ZM1018.01 467.208L1017.16 465.492L1017.16 465.492L1018.01 467.208ZM967.299 467.208L968.156 465.492L968.156 465.492L967.299 467.208ZM888.632 427.874L887.774 429.59L887.774 429.59L888.632 427.874ZM888.632 410.969L889.49 412.685L888.632 410.969ZM967.299 371.636L968.156 373.351L968.156 373.351L967.299 371.636ZM1013.81 363.611C1000.97 357.227 985.891 357.191 973.022 363.511L971.331 360.067C985.273 353.22 1001.61 353.26 1015.52 360.176L1013.81 363.611ZM1109.11 410.994L1013.81 363.611L1015.52 360.176L1110.82 407.559L1109.11 410.994ZM1118.69 426.452C1118.69 419.899 1114.98 413.911 1109.11 410.994L1110.82 407.559C1117.99 411.124 1122.52 418.443 1122.52 426.452H1118.69ZM1118.69 556.477L1118.69 426.452L1122.52 426.452L1122.52 556.477L1118.69 556.477ZM1109.31 571.834C1115.07 568.878 1118.69 562.949 1118.69 556.477H1122.52C1122.52 564.388 1118.1 571.633 1111.06 575.247L1109.31 571.834ZM1013.68 620.937L1109.31 571.834L1111.06 575.247L1015.44 624.35L1013.68 620.937ZM971.628 620.937C984.828 627.715 1000.49 627.715 1013.68 620.937L1015.44 624.35C1001.14 631.693 984.175 631.693 969.876 624.35L971.628 620.937ZM876.003 571.834L971.628 620.937L969.876 624.35L874.25 575.247L876.003 571.834ZM866.625 556.477C866.625 562.949 870.245 568.878 876.003 571.834L874.25 575.247C867.214 571.633 862.789 564.387 862.789 556.477H866.625ZM866.625 426.517V556.477H862.789V426.517H866.625ZM876.279 411.021C870.37 413.923 866.625 419.934 866.625 426.517H862.789C862.789 418.471 867.365 411.125 874.588 407.578L876.279 411.021ZM973.022 363.511L876.279 411.021L874.588 407.578L971.331 360.067L973.022 363.511ZM1095.82 412.685L1017.16 373.351L1018.87 369.92L1097.54 409.254L1095.82 412.685ZM1095.82 426.159C1101.38 423.383 1101.38 415.461 1095.82 412.685L1097.54 409.254C1105.92 413.443 1105.92 425.401 1097.54 429.59L1095.82 426.159ZM1017.16 465.492L1095.82 426.159L1097.54 429.59L1018.87 468.923L1017.16 465.492ZM968.156 465.492C983.58 473.204 1001.73 473.204 1017.16 465.492L1018.87 468.923C1002.37 477.175 982.944 477.175 966.441 468.923L968.156 465.492ZM889.49 426.159L968.156 465.492L966.441 468.923L887.774 429.59L889.49 426.159ZM889.49 412.685C883.938 415.461 883.938 423.383 889.49 426.159L887.774 429.59C879.395 425.401 879.395 413.443 887.774 409.254L889.49 412.685ZM968.156 373.351L889.49 412.685L887.774 409.254L966.441 369.92L968.156 373.351ZM1017.16 373.351C1001.73 365.64 983.58 365.64 968.156 373.351L966.441 369.92C982.944 361.669 1002.37 361.669 1018.87 369.92L1017.16 373.351Z" fill="#222223"></path><path d="M1017.91 340.832C1039.47 349.694 1059.55 350.524 1062.78 342.686L1070.07 324.946C1071.42 319.972 1066.68 306.961 1036.88 294.708C1007.07 282.454 994.551 288.366 992.015 292.853L984.721 310.593C981.498 318.432 996.359 331.97 1017.91 340.832Z" fill="white" stroke="#222223" stroke-width="3.83621"></path><ellipse cx="1031.04" cy="308.9" rx="42.1983" ry="15.3448" transform="rotate(22.3499 1031.04 308.9)" stroke="#222223" stroke-width="1.91811"></ellipse><path d="M1024.84 323.979L1018.28 339.945" stroke="#222223" stroke-width="1.91811"></path><path d="M1039.76 328.04L1033.2 344.006" stroke="#222223" stroke-width="1.91811"></path><path d="M1011.38 316.37L1004.09 334.11" stroke="#222223" stroke-width="1.91811"></path><path d="M998.647 306.987L991.354 324.727" stroke="#222223" stroke-width="1.91811"></path><path d="M1055.42 330.327L1048.12 348.067" stroke="#222223" stroke-width="1.91811"></path><path d="M944.733 393.677C923.179 402.54 903.093 403.37 899.87 395.532L892.576 377.792C891.223 372.818 895.966 359.807 925.77 347.553C955.573 335.299 968.097 341.211 970.633 345.699L977.927 363.439C981.149 371.277 966.288 384.815 944.733 393.677Z" fill="white" stroke="#222223" stroke-width="3.83621"></path><ellipse cx="42.1983" cy="15.3448" rx="42.1983" ry="15.3448" transform="matrix(-0.924879 0.380262 0.380262 0.924879 964.798 331.507)" stroke="#222223" stroke-width="1.91811"></ellipse><path d="M937.804 376.824L944.368 392.79" stroke="#222223" stroke-width="1.91811"></path><path d="M922.883 380.885L929.447 396.851" stroke="#222223" stroke-width="1.91811"></path><path d="M951.267 369.215L958.56 386.955" stroke="#222223" stroke-width="1.91811"></path><path d="M964 359.832L971.294 377.572" stroke="#222223" stroke-width="1.91811"></path><path d="M907.231 383.172L914.525 400.913" stroke="#222223" stroke-width="1.91811"></path><path d="M919.75 484.213L895.604 492.825C893.694 493.506 892.419 495.314 892.419 497.341V531.509C892.419 532.833 892.967 534.098 893.932 535.005L921.131 560.545C922.375 561.713 924.145 562.132 925.779 561.646L949.522 554.592C951.556 553.988 952.951 552.118 952.951 549.995V515.932C952.951 514.673 952.456 513.464 951.572 512.567L924.777 485.365C923.468 484.036 921.507 483.587 919.75 484.213Z" stroke="#222223" stroke-width="1.91811"></path><path d="M1748.64 605.761L1821.97 569.096C1827.43 566.363 1830.89 560.777 1830.89 554.667V461.468C1830.89 455.304 1827.37 449.679 1821.84 446.974L1702.09 388.461C1690.9 382.994 1677.8 383.054 1666.67 388.622L1593.34 425.288C1587.87 428.02 1584.42 433.606 1584.42 439.717V532.915C1584.42 539.079 1587.93 544.704 1593.47 547.41L1713.22 605.923C1724.4 611.389 1737.5 611.33 1748.64 605.761Z" stroke="#222223" stroke-width="4.25492"></path><path d="M1819.48 445.824L1689.11 382.121C1686.1 380.65 1682.58 380.666 1679.58 382.165L1595.77 424.071C1591.12 426.395 1591.15 433.038 1595.82 435.319L1715.05 493.575C1725.08 498.479 1736.83 498.425 1746.82 493.43L1819.53 457.072C1824.18 454.748 1824.15 448.105 1819.48 445.824Z" stroke="#222223" stroke-width="2.12746"></path><path d="M1725.53 457.446L1765.35 437.536C1770.82 434.803 1774.27 429.217 1774.27 423.107V356.451C1774.27 350.341 1770.82 344.755 1765.35 342.022L1725.53 322.112C1714.28 316.486 1701.03 316.486 1689.78 322.112L1649.96 342.022C1644.49 344.755 1641.04 350.341 1641.04 356.451V423.107C1641.04 429.217 1644.49 434.803 1649.96 437.536L1689.78 457.447C1701.03 463.072 1714.28 463.072 1725.53 457.446Z" fill="white" stroke="#222223" stroke-width="4.25492"></path><path d="M1763.04 340.87L1724.49 321.592C1713.89 316.293 1701.42 316.293 1690.82 321.592L1652.27 340.87C1647.64 343.182 1647.64 349.781 1652.27 352.093L1690.82 371.371C1701.42 376.669 1713.89 376.669 1724.49 371.371L1763.04 352.093C1767.67 349.781 1767.67 343.182 1763.04 340.87Z" stroke="#222223" stroke-width="2.12746"></path><path fill-rule="evenodd" clip-rule="evenodd" d="M1654.48 414.567C1654.96 418.338 1656.98 421.774 1660.11 424.023C1665.29 427.744 1671.52 427.666 1676.36 425.033L1654.48 414.567Z" fill="#222223"></path><circle cx="4.99594" cy="4.99594" r="4.99594" transform="matrix(-1 0 0 1 1691 391.635)" fill="#222223"></circle><circle cx="4.99594" cy="4.99594" r="4.99594" transform="matrix(-1 0 0 1 1661.02 378.312)" fill="#222223"></circle><g clip-path="url(#clip0_3815_3442)"><path d="M1612.53 495.49C1612.53 484.265 1621.6 479.21 1632.8 484.213C1640.81 487.799 1647.75 495.568 1651.03 503.82C1654.31 498.506 1661.24 496.924 1669.26 500.502C1680.46 505.496 1689.53 518.656 1689.53 529.881C1689.53 536.103 1686.74 540.423 1682.35 542.194L1655.46 558.742C1653.01 560.254 1649.04 558.474 1646.59 554.776L1619.7 514.206C1615.31 508.52 1612.52 501.711 1612.52 495.49H1612.53Z" fill="#222223"></path></g><rect width="277" height="67" transform="translate(120.429 145)" fill="#ACFFFF"></rect><path d="M174.884 158.275H183.659L193.784 190H189.509L185.684 177.85H172.859L169.034 190H164.804L174.884 158.275ZM184.559 174.34L179.834 159.4H178.709L173.984 174.34H184.559ZM211.161 190H202.386C201.336 190 200.541 189.745 200.001 189.235C199.491 188.725 199.236 187.93 199.236 186.85V171.055H194.286V167.635H199.236V161.965L203.241 160.75V167.635H210.261V171.055H203.241V186.625L211.161 186.58V190ZM230.937 190H222.162C221.112 190 220.317 189.745 219.777 189.235C219.267 188.725 219.012 187.93 219.012 186.85V171.055H214.062V167.635H219.012V161.965L223.017 160.75V167.635H230.037V171.055H223.017V186.625L230.937 186.58V190ZM234.614 183.79C234.614 181.93 235.214 180.445 236.414 179.335C237.644 178.195 239.534 177.505 242.084 177.265L250.859 176.41C250.769 174.37 250.244 172.87 249.284 171.91C248.324 170.92 246.854 170.425 244.874 170.425C243.224 170.425 241.889 170.845 240.869 171.685C239.849 172.525 239.249 173.83 239.069 175.6H235.109C235.349 173.02 236.309 170.98 237.989 169.48C239.699 167.95 241.979 167.185 244.829 167.185C248.039 167.185 250.514 168.085 252.254 169.885C253.994 171.685 254.864 174.085 254.864 177.085V186.58H258.149V190H254.054C253.214 190 252.554 189.76 252.074 189.28C251.594 188.8 251.354 188.14 251.354 187.3V186.22L251.984 183.835H250.859C250.379 185.785 249.434 187.375 248.024 188.605C246.644 189.835 244.694 190.45 242.174 190.45C239.294 190.45 237.314 189.76 236.234 188.38C235.154 187 234.614 185.47 234.614 183.79ZM238.574 183.295C238.574 184.555 238.949 185.515 239.699 186.175C240.449 186.835 241.484 187.165 242.804 187.165C244.394 187.165 245.789 186.82 246.989 186.13C248.219 185.44 249.164 184.495 249.824 183.295C250.514 182.095 250.859 180.745 250.859 179.245L242.759 180.1C241.319 180.25 240.254 180.565 239.564 181.045C238.904 181.495 238.574 182.245 238.574 183.295ZM261.245 178.795C261.245 176.605 261.695 174.64 262.595 172.9C263.525 171.13 264.86 169.735 266.6 168.715C268.34 167.695 270.38 167.185 272.72 167.185C274.34 167.185 275.915 167.5 277.445 168.13C279.005 168.76 280.325 169.75 281.405 171.1C282.485 172.45 283.115 174.145 283.295 176.185H279.29C278.99 174.235 278.255 172.825 277.085 171.955C275.915 171.055 274.46 170.605 272.72 170.605C270.29 170.605 268.43 171.385 267.14 172.945C265.85 174.475 265.205 176.425 265.205 178.795C265.205 181.195 265.85 183.175 267.14 184.735C268.43 186.265 270.29 187.03 272.72 187.03C274.46 187.03 275.915 186.595 277.085 185.725C278.255 184.825 278.99 183.4 279.29 181.45H283.295C283.115 183.49 282.485 185.185 281.405 186.535C280.325 187.885 279.005 188.875 277.445 189.505C275.915 190.135 274.34 190.45 272.72 190.45C270.38 190.45 268.34 189.94 266.6 188.92C264.86 187.9 263.525 186.52 262.595 184.78C261.695 183.01 261.245 181.015 261.245 178.795ZM288.688 156.925H292.693V176.815H295.123L303.673 167.635H308.668L298.453 178.48L308.578 190H303.583L294.943 180.055H292.693V190H288.688V156.925ZM310.332 178.525C310.332 174.955 311.307 172.18 313.257 170.2C315.207 168.19 317.802 167.185 321.042 167.185C324.402 167.185 327.057 168.16 329.007 170.11C330.987 172.03 331.977 174.7 331.977 178.12V179.56H314.202C314.262 181.84 314.892 183.7 316.092 185.14C317.322 186.55 319.047 187.255 321.267 187.255C323.127 187.255 324.627 186.805 325.767 185.905C326.937 185.005 327.717 183.76 328.107 182.17H332.067C331.557 184.54 330.432 186.52 328.692 188.11C326.952 189.67 324.492 190.45 321.312 190.45C318.972 190.45 316.977 189.925 315.327 188.875C313.677 187.825 312.432 186.4 311.592 184.6C310.752 182.8 310.332 180.775 310.332 178.525ZM328.062 176.725C327.942 174.715 327.237 173.155 325.947 172.045C324.687 170.905 323.052 170.335 321.042 170.335C319.152 170.335 317.577 170.905 316.317 172.045C315.087 173.185 314.397 174.745 314.247 176.725H328.062ZM337.468 170.74C337.468 168.67 338.518 167.635 340.618 167.635H353.263V171.055H341.473V190H337.468V170.74Z" fill="#222223"></path><rect width="304" height="67" transform="translate(840.656 145)" fill="#ACFFFF"></rect><path d="M891.051 158.275V172.585H909.141V158.275H913.236V190H909.141V176.14H891.051V190H886.956V158.275H891.051ZM918.617 178.795C918.617 176.605 919.112 174.625 920.102 172.855C921.092 171.085 922.487 169.705 924.287 168.715C926.087 167.695 928.157 167.185 930.497 167.185C932.807 167.185 934.862 167.695 936.662 168.715C938.462 169.705 939.857 171.085 940.847 172.855C941.837 174.625 942.332 176.605 942.332 178.795C942.332 181.015 941.837 183.01 940.847 184.78C939.857 186.55 938.462 187.945 936.662 188.965C934.892 189.955 932.837 190.45 930.497 190.45C928.157 190.45 926.087 189.955 924.287 188.965C922.487 187.945 921.092 186.55 920.102 184.78C919.112 183.01 918.617 181.015 918.617 178.795ZM922.577 178.795C922.577 181.165 923.267 183.13 924.647 184.69C926.057 186.25 928.007 187.03 930.497 187.03C932.957 187.03 934.877 186.25 936.257 184.69C937.667 183.13 938.372 181.165 938.372 178.795C938.372 177.265 938.057 175.885 937.427 174.655C936.827 173.395 935.927 172.405 934.727 171.685C933.557 170.965 932.147 170.605 930.497 170.605C928.847 170.605 927.422 170.965 926.222 171.685C925.022 172.405 924.107 173.395 923.477 174.655C922.877 175.885 922.577 177.265 922.577 178.795ZM947.73 167.635H951.735V171.37L951.06 174.07H952.185C952.665 171.97 953.625 170.305 955.065 169.075C956.535 167.815 958.44 167.185 960.78 167.185C963.39 167.185 965.445 167.965 966.945 169.525C968.445 171.085 969.195 173.395 969.195 176.455V190H965.235V176.995C965.235 174.715 964.785 173.08 963.885 172.09C962.985 171.1 961.575 170.605 959.655 170.605C957.285 170.605 955.365 171.46 953.895 173.17C952.455 174.88 951.735 177.22 951.735 180.19V190H947.73V167.635ZM974.164 178.525C974.164 174.955 975.139 172.18 977.089 170.2C979.039 168.19 981.634 167.185 984.874 167.185C988.234 167.185 990.889 168.16 992.839 170.11C994.819 172.03 995.809 174.7 995.809 178.12V179.56H978.034C978.094 181.84 978.724 183.7 979.924 185.14C981.154 186.55 982.879 187.255 985.099 187.255C986.959 187.255 988.459 186.805 989.599 185.905C990.769 185.005 991.549 183.76 991.939 182.17H995.899C995.389 184.54 994.264 186.52 992.524 188.11C990.784 189.67 988.324 190.45 985.144 190.45C982.804 190.45 980.809 189.925 979.159 188.875C977.509 187.825 976.264 186.4 975.424 184.6C974.584 182.8 974.164 180.775 974.164 178.525ZM991.894 176.725C991.774 174.715 991.069 173.155 989.779 172.045C988.519 170.905 986.884 170.335 984.874 170.335C982.984 170.335 981.409 170.905 980.149 172.045C978.919 173.185 978.229 174.745 978.079 176.725H991.894ZM1022.36 195.985C1022.36 197.815 1021.33 198.73 1019.26 198.73H1002.16V195.31H1018.36V186.265L1019.03 183.565H1017.91C1017.43 185.665 1016.45 187.345 1014.98 188.605C1013.54 189.835 1011.65 190.45 1009.31 190.45C1006.7 190.45 1004.65 189.67 1003.15 188.11C1001.65 186.55 1000.9 184.24 1000.9 181.18V167.635H1004.86V180.64C1004.86 182.92 1005.31 184.555 1006.21 185.545C1007.11 186.535 1008.52 187.03 1010.44 187.03C1012.81 187.03 1014.71 186.175 1016.15 184.465C1017.62 182.755 1018.36 180.415 1018.36 177.445V167.635H1022.36V195.985ZM1028.11 167.635H1032.11V170.74L1031.44 173.395H1032.56C1033.07 171.535 1034.09 170.035 1035.62 168.895C1037.15 167.755 1039.13 167.185 1041.56 167.185C1043.69 167.185 1045.55 167.695 1047.14 168.715C1048.76 169.705 1050.01 171.085 1050.88 172.855C1051.75 174.625 1052.18 176.62 1052.18 178.84C1052.18 181.03 1051.75 183.01 1050.88 184.78C1050.01 186.55 1048.76 187.945 1047.14 188.965C1045.55 189.955 1043.69 190.45 1041.56 190.45C1039.13 190.45 1037.15 189.88 1035.62 188.74C1034.09 187.57 1033.07 186.055 1032.56 184.195H1031.44L1032.11 186.895V198.73H1028.11V167.635ZM1032.11 178.84C1032.11 181.57 1032.86 183.625 1034.36 185.005C1035.89 186.355 1037.87 187.03 1040.3 187.03C1042.7 187.03 1044.62 186.355 1046.06 185.005C1047.5 183.625 1048.22 181.57 1048.22 178.84C1048.22 176.08 1047.5 174.025 1046.06 172.675C1044.62 171.295 1042.7 170.605 1040.3 170.605C1037.87 170.605 1035.89 171.295 1034.36 172.675C1032.86 174.025 1032.11 176.08 1032.11 178.84ZM1056.69 178.795C1056.69 176.605 1057.19 174.625 1058.18 172.855C1059.17 171.085 1060.56 169.705 1062.36 168.715C1064.16 167.695 1066.23 167.185 1068.57 167.185C1070.88 167.185 1072.94 167.695 1074.74 168.715C1076.54 169.705 1077.93 171.085 1078.92 172.855C1079.91 174.625 1080.41 176.605 1080.41 178.795C1080.41 181.015 1079.91 183.01 1078.92 184.78C1077.93 186.55 1076.54 187.945 1074.74 188.965C1072.97 189.955 1070.91 190.45 1068.57 190.45C1066.23 190.45 1064.16 189.955 1062.36 188.965C1060.56 187.945 1059.17 186.55 1058.18 184.78C1057.19 183.01 1056.69 181.015 1056.69 178.795ZM1060.65 178.795C1060.65 181.165 1061.34 183.13 1062.72 184.69C1064.13 186.25 1066.08 187.03 1068.57 187.03C1071.03 187.03 1072.95 186.25 1074.33 184.69C1075.74 183.13 1076.45 181.165 1076.45 178.795C1076.45 177.265 1076.13 175.885 1075.5 174.655C1074.9 173.395 1074 172.405 1072.8 171.685C1071.63 170.965 1070.22 170.605 1068.57 170.605C1066.92 170.605 1065.5 170.965 1064.3 171.685C1063.1 172.405 1062.18 173.395 1061.55 174.655C1060.95 175.885 1060.65 177.265 1060.65 178.795ZM1099.69 190H1090.91C1089.86 190 1089.07 189.745 1088.53 189.235C1088.02 188.725 1087.76 187.93 1087.76 186.85V171.055H1082.81V167.635H1087.76V161.965L1091.77 160.75V167.635H1098.79V171.055H1091.77V186.625L1099.69 186.58V190Z" fill="#222223"></path><rect width="241" height="67" transform="translate(1587.15 145)" fill="#ACFFFF"></rect><path d="M1631.77 158.275H1636L1645.67 188.875H1646.84L1656.52 158.275H1660.75L1650.62 190H1641.85L1631.77 158.275ZM1662.25 186.58H1668.46V171.055H1663.82V167.635H1669.63C1671.31 167.635 1672.15 168.505 1672.15 170.245V186.58H1678.4V190H1662.25V186.58ZM1669.81 163.81C1668.91 163.81 1668.16 163.525 1667.56 162.955C1666.96 162.385 1666.66 161.665 1666.66 160.795C1666.66 159.925 1666.96 159.205 1667.56 158.635C1668.16 158.065 1668.91 157.78 1669.81 157.78C1670.71 157.78 1671.47 158.065 1672.1 158.635C1672.73 159.205 1673.05 159.925 1673.05 160.795C1673.05 161.665 1672.73 162.385 1672.1 162.955C1671.47 163.525 1670.71 163.81 1669.81 163.81ZM1680.79 178.795C1680.79 176.605 1681.24 174.64 1682.14 172.9C1683.07 171.13 1684.4 169.735 1686.14 168.715C1687.88 167.695 1689.92 167.185 1692.26 167.185C1693.88 167.185 1695.46 167.5 1696.99 168.13C1698.55 168.76 1699.87 169.75 1700.95 171.1C1702.03 172.45 1702.66 174.145 1702.84 176.185H1698.83C1698.53 174.235 1697.8 172.825 1696.63 171.955C1695.46 171.055 1694 170.605 1692.26 170.605C1689.83 170.605 1687.97 171.385 1686.68 172.945C1685.39 174.475 1684.75 176.425 1684.75 178.795C1684.75 181.195 1685.39 183.175 1686.68 184.735C1687.97 186.265 1689.83 187.03 1692.26 187.03C1694 187.03 1695.46 186.595 1696.63 185.725C1697.8 184.825 1698.53 183.4 1698.83 181.45H1702.84C1702.66 183.49 1702.03 185.185 1700.95 186.535C1699.87 187.885 1698.55 188.875 1696.99 189.505C1695.46 190.135 1693.88 190.45 1692.26 190.45C1689.92 190.45 1687.88 189.94 1686.14 188.92C1684.4 187.9 1683.07 186.52 1682.14 184.78C1681.24 183.01 1680.79 181.015 1680.79 178.795ZM1722.24 190H1713.47C1712.42 190 1711.62 189.745 1711.08 189.235C1710.57 188.725 1710.32 187.93 1710.32 186.85V171.055H1705.37V167.635H1710.32V161.965L1714.32 160.75V167.635H1721.34V171.055H1714.32V186.625L1722.24 186.58V190ZM1726.49 186.58H1732.7V171.055H1728.07V167.635H1733.87C1735.55 167.635 1736.39 168.505 1736.39 170.245V186.58H1742.65V190H1726.49V186.58ZM1734.05 163.81C1733.15 163.81 1732.4 163.525 1731.8 162.955C1731.2 162.385 1730.9 161.665 1730.9 160.795C1730.9 159.925 1731.2 159.205 1731.8 158.635C1732.4 158.065 1733.15 157.78 1734.05 157.78C1734.95 157.78 1735.72 158.065 1736.35 158.635C1736.98 159.205 1737.29 159.925 1737.29 160.795C1737.29 161.665 1736.98 162.385 1736.35 162.955C1735.72 163.525 1734.95 163.81 1734.05 163.81ZM1747.25 167.635H1751.26V171.28L1750.58 173.98H1751.71C1752.73 169.45 1755.38 167.185 1759.67 167.185C1761.65 167.185 1763.2 167.8 1764.31 169.03C1765.42 170.23 1766.11 171.88 1766.38 173.98H1767.1C1768.12 169.45 1770.77 167.185 1775.06 167.185C1777.34 167.185 1779.07 168.01 1780.24 169.66C1781.44 171.28 1782.04 173.425 1782.04 176.095V190H1778.03V176.95C1778.03 174.7 1777.7 173.08 1777.04 172.09C1776.41 171.1 1775.24 170.605 1773.53 170.605C1771.37 170.605 1769.68 171.49 1768.45 173.26C1767.25 175 1766.65 177.355 1766.65 180.325V190H1762.64V176.95C1762.64 174.7 1762.31 173.08 1761.65 172.09C1761.02 171.1 1759.85 170.605 1758.14 170.605C1755.98 170.605 1754.29 171.49 1753.06 173.26C1751.86 175 1751.26 177.355 1751.26 180.325V190H1747.25V167.635Z" fill="#222223"></path><rect x="467.086" y="371.426" width="34.3788" height="34.3788" rx="17.1894" fill="#1B7BDB"></rect><path d="M485.307 384.04C484.541 385.072 483.289 385.588 481.553 385.588H481.271V383.664H481.553C482.789 383.664 483.727 383.406 484.369 382.89C485.01 382.374 485.331 381.623 485.331 380.637V380.403H487.278V396.828H485.307V384.04Z" fill="white"></path><path d="M515.985 396.615V375.128H523.721C525.828 375.128 527.701 375.579 529.338 376.479C530.975 377.379 532.254 378.638 533.175 380.255C534.096 381.851 534.556 383.682 534.556 385.749C534.556 387.857 534.096 389.739 533.175 391.397C532.254 393.034 530.975 394.313 529.338 395.234C527.701 396.155 525.828 396.615 523.721 396.615H515.985ZM523.966 393.3C525.276 393.3 526.442 392.983 527.465 392.349C528.509 391.714 529.317 390.824 529.89 389.678C530.463 388.532 530.75 387.222 530.75 385.749C530.75 384.358 530.463 383.109 529.89 382.004C529.317 380.899 528.509 380.029 527.465 379.395C526.442 378.761 525.276 378.444 523.966 378.444H519.669V393.3H523.966ZM545.169 397.076C543.532 397.076 542.079 396.718 540.81 396.001C539.541 395.265 538.549 394.252 537.833 392.962C537.137 391.653 536.789 390.179 536.789 388.542C536.789 386.803 537.137 385.278 537.833 383.969C538.549 382.639 539.521 381.626 540.749 380.93C541.977 380.214 543.348 379.856 544.862 379.856C546.397 379.856 547.737 380.203 548.883 380.899C550.049 381.574 550.96 382.557 551.615 383.846C552.27 385.115 552.607 386.619 552.628 388.358V389.218H540.411C540.534 390.671 541.015 391.837 541.854 392.717C542.713 393.576 543.829 394.006 545.2 394.006C546.141 394.006 546.949 393.791 547.625 393.362C548.3 392.911 548.771 392.277 549.037 391.458H552.567C552.157 393.218 551.298 394.6 549.988 395.602C548.678 396.585 547.072 397.076 545.169 397.076ZM548.883 386.67C548.658 385.483 548.187 384.562 547.471 383.907C546.775 383.253 545.906 382.925 544.862 382.925C543.798 382.925 542.887 383.263 542.13 383.938C541.373 384.593 540.851 385.504 540.565 386.67H548.883ZM555.485 402.754V380.347H558.401L558.769 383.017C559.322 382.055 560.1 381.288 561.102 380.715C562.125 380.142 563.271 379.856 564.54 379.856C565.952 379.856 567.211 380.224 568.316 380.961C569.441 381.677 570.311 382.68 570.925 383.969C571.559 385.258 571.876 386.731 571.876 388.389C571.876 390.067 571.559 391.571 570.925 392.901C570.311 394.211 569.441 395.234 568.316 395.971C567.211 396.707 565.942 397.076 564.509 397.076C563.363 397.076 562.32 396.84 561.378 396.37C560.437 395.879 559.69 395.203 559.138 394.344V402.754H555.485ZM563.711 394.006C565.021 394.006 566.085 393.484 566.904 392.441C567.743 391.397 568.162 390.046 568.162 388.389C568.162 386.772 567.743 385.463 566.904 384.46C566.085 383.437 565.011 382.925 563.681 382.925C562.351 382.925 561.256 383.426 560.396 384.429C559.557 385.432 559.138 386.721 559.138 388.297C559.138 389.402 559.332 390.394 559.721 391.274C560.11 392.134 560.652 392.809 561.348 393.3C562.044 393.771 562.831 394.006 563.711 394.006ZM578.382 396.615H574.76V373.594H578.382V396.615ZM589.623 397.076C587.904 397.076 586.41 396.707 585.141 395.971C583.893 395.213 582.931 394.17 582.256 392.84C581.601 391.51 581.273 390.005 581.273 388.327C581.273 386.588 581.632 385.084 582.348 383.815C583.084 382.526 584.077 381.544 585.325 380.869C586.594 380.193 588.026 379.856 589.623 379.856C591.321 379.856 592.794 380.224 594.043 380.961C595.311 381.697 596.273 382.71 596.928 383.999C597.603 385.268 597.941 386.711 597.941 388.327C597.941 390.128 597.583 391.694 596.867 393.024C596.171 394.334 595.189 395.336 593.92 396.032C592.672 396.728 591.239 397.076 589.623 397.076ZM589.623 393.975C591.055 393.975 592.181 393.454 592.999 392.41C593.838 391.346 594.258 389.985 594.258 388.327C594.258 386.711 593.838 385.411 592.999 384.429C592.16 383.447 591.035 382.956 589.623 382.956C588.211 382.956 587.075 383.447 586.215 384.429C585.376 385.411 584.957 386.711 584.957 388.327C584.957 390.067 585.387 391.448 586.246 392.471C587.126 393.474 588.252 393.975 589.623 393.975ZM599.752 402.754V399.685H602.698C603.967 399.685 604.765 399.235 605.093 398.334L605.737 396.615H605.062L598.616 380.347H602.514L607.18 392.686L611.753 380.347H615.529L608.438 399.409C608.009 400.534 607.333 401.373 606.412 401.926C605.492 402.478 604.254 402.754 602.698 402.754H599.752ZM617.774 396.615V380.347H620.69L620.967 382.618C621.499 381.8 622.235 381.135 623.177 380.623C624.138 380.111 625.213 379.856 626.4 379.856C627.546 379.856 628.548 380.132 629.408 380.684C630.288 381.216 630.943 381.953 631.372 382.894C631.843 381.994 632.58 381.268 633.582 380.715C634.585 380.142 635.711 379.856 636.959 379.856C638.657 379.856 640.008 380.408 641.011 381.513C642.034 382.598 642.545 384.02 642.545 385.78V396.615H638.893V385.964C638.893 385.064 638.637 384.347 638.125 383.815C637.614 383.263 636.918 382.986 636.038 382.986C634.81 382.986 633.828 383.345 633.091 384.061C632.355 384.757 631.976 385.657 631.956 386.762V396.615H628.334V385.964C628.334 385.064 628.078 384.347 627.566 383.815C627.055 383.263 626.359 382.986 625.479 382.986C624.251 382.986 623.269 383.345 622.532 384.061C621.795 384.757 621.417 385.657 621.396 386.762V396.615H617.774ZM653.532 397.076C651.895 397.076 650.442 396.718 649.173 396.001C647.905 395.265 646.912 394.252 646.196 392.962C645.5 391.653 645.152 390.179 645.152 388.542C645.152 386.803 645.5 385.278 646.196 383.969C646.912 382.639 647.884 381.626 649.112 380.93C650.34 380.214 651.711 379.856 653.225 379.856C654.76 379.856 656.1 380.203 657.246 380.899C658.413 381.574 659.323 382.557 659.978 383.846C660.633 385.115 660.971 386.619 660.991 388.358V389.218H648.774C648.897 390.671 649.378 391.837 650.217 392.717C651.076 393.576 652.192 394.006 653.563 394.006C654.504 394.006 655.312 393.791 655.988 393.362C656.663 392.911 657.134 392.277 657.4 391.458H660.93C660.52 393.218 659.661 394.6 658.351 395.602C657.042 396.585 655.435 397.076 653.532 397.076ZM657.246 386.67C657.021 385.483 656.55 384.562 655.834 383.907C655.138 383.253 654.269 382.925 653.225 382.925C652.161 382.925 651.25 383.263 650.493 383.938C649.736 384.593 649.214 385.504 648.928 386.67H657.246ZM663.817 396.615V380.347H666.733L667.04 382.741C667.552 381.881 668.299 381.186 669.281 380.654C670.263 380.122 671.348 379.856 672.535 379.856C674.274 379.856 675.666 380.398 676.709 381.482C677.753 382.567 678.275 384.02 678.275 385.841V396.615H674.653V386.025C674.653 385.104 674.366 384.378 673.793 383.846C673.22 383.293 672.433 383.017 671.43 383.017C670.263 383.017 669.312 383.375 668.575 384.092C667.838 384.787 667.46 385.677 667.439 386.762V396.615H663.817ZM688.537 396.615C686.778 396.615 685.427 396.196 684.486 395.357C683.565 394.497 683.104 393.259 683.104 391.643V383.416H680.25V380.347H683.104V374.791H686.726V380.347H690.932V383.416H686.726V391.397C686.726 392.093 686.9 392.625 687.248 392.993C687.596 393.362 688.108 393.546 688.783 393.546H690.625V396.615H688.537Z" fill="#222223"></path><path d="M787.156 419.615L774.878 412.526V426.704L787.156 419.615ZM470.892 420.843H776.106V418.387H470.892V420.843Z" fill="#222223"></path><rect x="568.36" y="499.615" width="34.3788" height="34.3788" rx="17.1894" fill="#1B7BDB"></rect><path d="M585.843 525.275C584.623 525.275 583.536 525.056 582.582 524.618C581.643 524.165 580.892 523.523 580.329 522.694C579.782 521.865 579.477 520.895 579.414 519.785H581.455C581.534 520.911 581.964 521.81 582.746 522.483C583.544 523.14 584.584 523.469 585.867 523.469C587.04 523.469 587.979 523.187 588.683 522.624C589.386 522.045 589.738 521.286 589.738 520.348C589.738 519.425 589.386 518.705 588.683 518.189C587.994 517.657 587.032 517.391 585.796 517.391H583.591V515.772H585.796C586.766 515.772 587.556 515.514 588.166 514.998C588.792 514.482 589.105 513.809 589.105 512.98C589.105 512.151 588.792 511.47 588.166 510.939C587.556 510.407 586.758 510.141 585.773 510.141C584.756 510.141 583.896 510.446 583.192 511.056C582.488 511.65 582.058 512.448 581.901 513.449H579.86C580.079 511.885 580.728 510.641 581.807 509.718C582.902 508.795 584.263 508.334 585.89 508.334C586.891 508.334 587.783 508.514 588.565 508.874C589.363 509.233 589.981 509.742 590.419 510.399C590.857 511.04 591.076 511.768 591.076 512.581C591.076 513.52 590.794 514.333 590.231 515.021C589.668 515.71 588.925 516.179 588.002 516.429C589.175 516.695 590.083 517.188 590.724 517.907C591.365 518.627 591.686 519.511 591.686 520.559C591.686 521.482 591.443 522.303 590.959 523.023C590.474 523.727 589.785 524.282 588.894 524.689C588.018 525.08 587.001 525.275 585.843 525.275Z" fill="white"></path><path d="M631.92 525.615H627.899L621.822 504.128H625.659L630.14 520.244L634.53 504.128H637.967L642.388 520.274L646.869 504.128H650.706L644.628 525.615H640.607L636.248 509.562L631.92 525.615ZM654.752 507.167C654.097 507.167 653.544 506.942 653.094 506.492C652.644 506.021 652.419 505.459 652.419 504.804C652.419 504.149 652.644 503.596 653.094 503.146C653.544 502.696 654.097 502.471 654.752 502.471C655.427 502.471 655.979 502.696 656.409 503.146C656.859 503.596 657.084 504.149 657.084 504.804C657.084 505.479 656.859 506.042 656.409 506.492C655.979 506.942 655.427 507.167 654.752 507.167ZM656.563 525.615H652.941V509.347H656.563V525.615ZM667.499 525.615C665.739 525.615 664.388 525.196 663.447 524.357C662.526 523.497 662.066 522.259 662.066 520.643V512.416H659.211V509.347H662.066V503.791H665.688V509.347H669.893V512.416H665.688V520.397C665.688 521.093 665.862 521.625 666.21 521.993C666.557 522.362 667.069 522.546 667.744 522.546H669.586V525.615H667.499ZM672.606 525.615V502.594H676.228V511.096C676.801 510.401 677.528 509.858 678.408 509.469C679.308 509.06 680.28 508.856 681.324 508.856C683.063 508.856 684.455 509.398 685.498 510.482C686.542 511.567 687.064 513.02 687.064 514.841V525.615H683.442V515.025C683.442 514.104 683.155 513.378 682.582 512.846C682.03 512.293 681.273 512.017 680.311 512.017C679.103 512.017 678.121 512.375 677.364 513.092C676.627 513.787 676.249 514.677 676.228 515.762V525.615H672.606ZM697.222 526.076C695.769 526.076 694.47 525.707 693.324 524.971C692.178 524.234 691.277 523.211 690.622 521.901C689.988 520.571 689.671 519.067 689.671 517.389C689.671 515.731 689.988 514.258 690.622 512.969C691.257 511.68 692.137 510.677 693.262 509.961C694.388 509.224 695.667 508.856 697.099 508.856C698.225 508.856 699.248 509.081 700.169 509.531C701.11 509.961 701.867 510.564 702.44 511.342V502.594H706.062V525.615H703.146L702.809 522.73C702.338 523.774 701.611 524.592 700.629 525.185C699.667 525.779 698.532 526.076 697.222 526.076ZM697.897 523.006C698.777 523.006 699.555 522.771 700.23 522.3C700.926 521.809 701.468 521.134 701.857 520.274C702.246 519.415 702.44 518.443 702.44 517.358C702.44 515.742 702.021 514.432 701.182 513.429C700.363 512.406 699.289 511.894 697.959 511.894C696.608 511.894 695.503 512.406 694.644 513.429C693.805 514.452 693.385 515.782 693.385 517.42C693.385 519.057 693.805 520.397 694.644 521.441C695.483 522.484 696.567 523.006 697.897 523.006ZM709.805 525.615V509.347H712.721L713.151 512.539C714.215 510.288 716.097 509.163 718.799 509.163H719.413V512.692H718.799C717.1 512.692 715.78 513.122 714.839 513.982C713.898 514.841 713.427 516.038 713.427 517.573V525.615H709.805ZM726.897 525.953C725.015 525.953 723.51 525.533 722.385 524.694C721.28 523.835 720.727 522.658 720.727 521.164C720.727 519.445 721.362 518.238 722.631 517.542C723.92 516.847 725.608 516.376 727.695 516.13C727.879 516.11 728.432 516.049 729.353 515.946C730.294 515.844 730.969 515.68 731.379 515.455C731.788 515.209 731.993 514.882 731.993 514.473C731.972 513.675 731.665 513.04 731.072 512.57C730.478 512.079 729.67 511.833 728.647 511.833C727.583 511.833 726.693 512.099 725.976 512.631C725.26 513.143 724.851 513.828 724.749 514.688H721.096C721.198 513.562 721.587 512.559 722.262 511.68C722.938 510.779 723.828 510.083 724.933 509.592C726.058 509.101 727.317 508.856 728.708 508.856C730.857 508.856 732.525 509.388 733.712 510.452C734.919 511.516 735.523 512.938 735.523 514.718V522.085C735.523 522.556 735.789 522.791 736.321 522.791H737.211V525.615H735.492C734.673 525.615 734.008 525.452 733.497 525.124C733.006 524.797 732.688 524.326 732.545 523.712C732.484 523.528 732.433 523.344 732.392 523.16C731.389 525.022 729.557 525.953 726.897 525.953ZM727.634 523.098C728.903 523.098 729.946 522.771 730.765 522.116C731.583 521.461 731.993 520.591 731.993 519.507V517.235C731.727 517.665 731.287 517.972 730.673 518.156C730.059 518.32 729.199 518.473 728.094 518.617C726.826 518.76 725.884 518.975 725.27 519.261C724.677 519.548 724.38 520.08 724.38 520.857C724.38 521.574 724.656 522.126 725.209 522.515C725.782 522.904 726.59 523.098 727.634 523.098ZM746.394 525.615H742.588L737.769 509.347H741.483L744.767 521.134L747.99 509.347H750.998L754.252 521.011L757.475 509.347H761.189L756.37 525.615H752.625L749.494 514.504L746.394 525.615ZM768.594 525.953C766.711 525.953 765.207 525.533 764.082 524.694C762.977 523.835 762.424 522.658 762.424 521.164C762.424 519.445 763.058 518.238 764.327 517.542C765.616 516.847 767.305 516.376 769.392 516.13C769.576 516.11 770.129 516.049 771.049 515.946C771.991 515.844 772.666 515.68 773.075 515.455C773.485 515.209 773.689 514.882 773.689 514.473C773.669 513.675 773.362 513.04 772.768 512.57C772.175 512.079 771.367 511.833 770.343 511.833C769.279 511.833 768.389 512.099 767.673 512.631C766.957 513.143 766.547 513.828 766.445 514.688H762.792C762.895 513.562 763.283 512.559 763.959 511.68C764.634 510.779 765.524 510.083 766.629 509.592C767.755 509.101 769.013 508.856 770.405 508.856C772.553 508.856 774.221 509.388 775.408 510.452C776.616 511.516 777.219 512.938 777.219 514.718V522.085C777.219 522.556 777.485 522.791 778.017 522.791H778.907V525.615H777.188C776.37 525.615 775.705 525.452 775.193 525.124C774.702 524.797 774.385 524.326 774.242 523.712C774.18 523.528 774.129 523.344 774.088 523.16C773.086 525.022 771.254 525.953 768.594 525.953ZM769.33 523.098C770.599 523.098 771.643 522.771 772.461 522.116C773.28 521.461 773.689 520.591 773.689 519.507V517.235C773.423 517.665 772.983 517.972 772.369 518.156C771.755 518.32 770.896 518.473 769.791 518.617C768.522 518.76 767.581 518.975 766.967 519.261C766.373 519.548 766.077 520.08 766.077 520.857C766.077 521.574 766.353 522.126 766.906 522.515C767.479 522.904 768.287 523.098 769.33 523.098ZM784.981 525.615H781.359V502.594H784.981V525.615Z" fill="#222223"></path><path d="M470.892 548.615L483.17 541.526V555.704L470.892 548.615ZM787.156 549.843H481.942V547.387H787.156V549.843Z" fill="#222223"></path><rect x="1289.08" y="428.465" width="34.3788" height="34.3788" rx="17.1894" fill="#1B7BDB"></rect><path d="M1311.79 442.029C1311.79 442.936 1311.58 443.726 1311.16 444.399C1310.74 445.056 1310.23 445.611 1309.64 446.065C1309.04 446.503 1308.24 447.011 1307.22 447.59C1306.33 448.106 1305.61 448.56 1305.06 448.951C1304.53 449.327 1304.08 449.788 1303.72 450.335C1303.36 450.867 1303.18 451.485 1303.18 452.189H1311.56V453.996H1301.1V452.447C1301.1 451.446 1301.31 450.578 1301.75 449.843C1302.21 449.108 1302.75 448.497 1303.37 448.013C1304.01 447.528 1304.86 446.98 1305.91 446.37C1306.8 445.838 1307.49 445.392 1307.99 445.033C1308.49 444.673 1308.91 444.243 1309.24 443.742C1309.58 443.241 1309.75 442.67 1309.75 442.029C1309.75 441.153 1309.46 440.449 1308.89 439.917C1308.31 439.385 1307.53 439.12 1306.56 439.12C1305.48 439.12 1304.59 439.464 1303.89 440.152C1303.18 440.825 1302.82 441.794 1302.81 443.062H1300.74C1300.81 441.841 1301.1 440.801 1301.61 439.941C1302.13 439.08 1302.82 438.431 1303.68 437.993C1304.54 437.54 1305.51 437.313 1306.59 437.313C1307.62 437.313 1308.53 437.508 1309.31 437.899C1310.11 438.29 1310.72 438.846 1311.14 439.565C1311.58 440.285 1311.79 441.106 1311.79 442.029Z" fill="white"></path><path d="M1357.31 454.465H1341.99V432.978H1357.03V436.293H1345.64V441.818H1355.96V445.041H1345.64V451.15H1357.31V454.465ZM1363.12 454.465H1359.04L1364.9 446.331L1359.13 438.196H1363.18L1366.96 443.629L1370.7 438.196H1374.75L1368.98 446.331L1374.84 454.465H1370.76L1366.96 448.848L1363.12 454.465ZM1377.23 460.604V438.196H1380.15L1380.52 440.867C1381.07 439.905 1381.85 439.138 1382.85 438.565C1383.87 437.992 1385.02 437.705 1386.29 437.705C1387.7 437.705 1388.96 438.074 1390.06 438.81C1391.19 439.526 1392.06 440.529 1392.67 441.818C1393.31 443.108 1393.63 444.581 1393.63 446.238C1393.63 447.916 1393.31 449.421 1392.67 450.751C1392.06 452.06 1391.19 453.084 1390.06 453.82C1388.96 454.557 1387.69 454.925 1386.26 454.925C1385.11 454.925 1384.07 454.69 1383.13 454.219C1382.19 453.728 1381.44 453.053 1380.89 452.193V460.604H1377.23ZM1385.46 451.856C1386.77 451.856 1387.83 451.334 1388.65 450.29C1389.49 449.247 1389.91 447.896 1389.91 446.238C1389.91 444.622 1389.49 443.312 1388.65 442.309C1387.83 441.286 1386.76 440.775 1385.43 440.775C1384.1 440.775 1383 441.276 1382.14 442.279C1381.31 443.281 1380.89 444.571 1380.89 446.146C1380.89 447.251 1381.08 448.244 1381.47 449.124C1381.86 449.983 1382.4 450.659 1383.1 451.15C1383.79 451.62 1384.58 451.856 1385.46 451.856ZM1400.13 454.465H1396.51V431.443H1400.13V454.465ZM1411.37 454.925C1409.65 454.925 1408.16 454.557 1406.89 453.82C1405.64 453.063 1404.68 452.019 1404 450.689C1403.35 449.359 1403.02 447.855 1403.02 446.177C1403.02 444.438 1403.38 442.934 1404.1 441.665C1404.83 440.376 1405.83 439.393 1407.07 438.718C1408.34 438.043 1409.78 437.705 1411.37 437.705C1413.07 437.705 1414.54 438.074 1415.79 438.81C1417.06 439.547 1418.02 440.56 1418.68 441.849C1419.35 443.118 1419.69 444.56 1419.69 446.177C1419.69 447.978 1419.33 449.543 1418.62 450.873C1417.92 452.183 1416.94 453.186 1415.67 453.882C1414.42 454.577 1412.99 454.925 1411.37 454.925ZM1411.37 451.825C1412.8 451.825 1413.93 451.303 1414.75 450.26C1415.59 449.195 1416.01 447.835 1416.01 446.177C1416.01 444.56 1415.59 443.261 1414.75 442.279C1413.91 441.297 1412.78 440.805 1411.37 440.805C1409.96 440.805 1408.82 441.297 1407.96 442.279C1407.13 443.261 1406.71 444.56 1406.71 446.177C1406.71 447.916 1407.14 449.298 1407.99 450.321C1408.87 451.324 1410 451.825 1411.37 451.825ZM1424.34 436.017C1423.68 436.017 1423.13 435.792 1422.68 435.342C1422.23 434.871 1422 434.308 1422 433.653C1422 432.999 1422.23 432.446 1422.68 431.996C1423.13 431.546 1423.68 431.321 1424.34 431.321C1425.01 431.321 1425.57 431.546 1426 431.996C1426.45 432.446 1426.67 432.999 1426.67 433.653C1426.67 434.329 1426.45 434.891 1426 435.342C1425.57 435.792 1425.01 436.017 1424.34 436.017ZM1426.15 454.465H1422.53V438.196H1426.15V454.465ZM1437.08 454.465C1435.33 454.465 1433.97 454.045 1433.03 453.206C1432.11 452.347 1431.65 451.109 1431.65 449.492V441.266H1428.8V438.196H1431.65V432.64H1435.27V438.196H1439.48V441.266H1435.27V449.247C1435.27 449.942 1435.45 450.474 1435.8 450.843C1436.14 451.211 1436.66 451.395 1437.33 451.395H1439.17V454.465H1437.08ZM1447.5 454.802C1445.62 454.802 1444.12 454.383 1442.99 453.544C1441.89 452.685 1441.33 451.508 1441.33 450.014C1441.33 448.295 1441.97 447.088 1443.24 446.392C1444.53 445.696 1446.21 445.226 1448.3 444.98C1448.48 444.96 1449.04 444.898 1449.96 444.796C1450.9 444.693 1451.57 444.53 1451.98 444.305C1452.39 444.059 1452.6 443.732 1452.6 443.322C1452.58 442.524 1452.27 441.89 1451.68 441.419C1451.08 440.928 1450.28 440.683 1449.25 440.683C1448.19 440.683 1447.3 440.949 1446.58 441.481C1445.87 441.992 1445.46 442.678 1445.35 443.537H1441.7C1441.8 442.412 1442.19 441.409 1442.87 440.529C1443.54 439.629 1444.43 438.933 1445.54 438.442C1446.66 437.951 1447.92 437.705 1449.31 437.705C1451.46 437.705 1453.13 438.237 1454.32 439.301C1455.52 440.365 1456.13 441.788 1456.13 443.568V450.935C1456.13 451.406 1456.39 451.641 1456.93 451.641H1457.82V454.465H1456.1C1455.28 454.465 1454.61 454.301 1454.1 453.974C1453.61 453.646 1453.29 453.176 1453.15 452.562C1453.09 452.378 1453.04 452.193 1453 452.009C1451.99 453.871 1450.16 454.802 1447.5 454.802ZM1448.24 451.948C1449.51 451.948 1450.55 451.62 1451.37 450.966C1452.19 450.311 1452.6 449.441 1452.6 448.356V446.085C1452.33 446.515 1451.89 446.822 1451.28 447.006C1450.66 447.17 1449.8 447.323 1448.7 447.466C1447.43 447.61 1446.49 447.824 1445.88 448.111C1445.28 448.397 1444.99 448.929 1444.99 449.707C1444.99 450.423 1445.26 450.976 1445.81 451.365C1446.39 451.753 1447.2 451.948 1448.24 451.948ZM1467 454.465C1465.24 454.465 1463.89 454.045 1462.95 453.206C1462.03 452.347 1461.57 451.109 1461.57 449.492V441.266H1458.71V438.196H1461.57V432.64H1465.19V438.196H1469.4V441.266H1465.19V449.247C1465.19 449.942 1465.36 450.474 1465.71 450.843C1466.06 451.211 1466.57 451.395 1467.25 451.395H1469.09V454.465H1467ZM1473.86 436.017C1473.2 436.017 1472.65 435.792 1472.2 435.342C1471.75 434.871 1471.53 434.308 1471.53 433.653C1471.53 432.999 1471.75 432.446 1472.2 431.996C1472.65 431.546 1473.2 431.321 1473.86 431.321C1474.53 431.321 1475.09 431.546 1475.52 431.996C1475.97 432.446 1476.19 432.999 1476.19 433.653C1476.19 434.329 1475.97 434.891 1475.52 435.342C1475.09 435.792 1474.53 436.017 1473.86 436.017ZM1475.67 454.465H1472.05V438.196H1475.67V454.465ZM1486.85 454.925C1485.13 454.925 1483.64 454.557 1482.37 453.82C1481.12 453.063 1480.16 452.019 1479.48 450.689C1478.83 449.359 1478.5 447.855 1478.5 446.177C1478.5 444.438 1478.86 442.934 1479.58 441.665C1480.31 440.376 1481.31 439.393 1482.55 438.718C1483.82 438.043 1485.25 437.705 1486.85 437.705C1488.55 437.705 1490.02 438.074 1491.27 438.81C1492.54 439.547 1493.5 440.56 1494.16 441.849C1494.83 443.118 1495.17 444.56 1495.17 446.177C1495.17 447.978 1494.81 449.543 1494.09 450.873C1493.4 452.183 1492.42 453.186 1491.15 453.882C1489.9 454.577 1488.47 454.925 1486.85 454.925ZM1486.85 451.825C1488.28 451.825 1489.41 451.303 1490.23 450.26C1491.07 449.195 1491.49 447.835 1491.49 446.177C1491.49 444.56 1491.07 443.261 1490.23 442.279C1489.39 441.297 1488.26 440.805 1486.85 440.805C1485.44 440.805 1484.3 441.297 1483.44 442.279C1482.6 443.261 1482.19 444.56 1482.19 446.177C1482.19 447.916 1482.61 449.298 1483.47 450.321C1484.35 451.324 1485.48 451.825 1486.85 451.825ZM1498.01 454.465V438.196H1500.92L1501.23 440.591C1501.74 439.731 1502.49 439.035 1503.47 438.503C1504.45 437.971 1505.54 437.705 1506.72 437.705C1508.46 437.705 1509.85 438.247 1510.9 439.332C1511.94 440.417 1512.46 441.87 1512.46 443.691V454.465H1508.84V443.875C1508.84 442.954 1508.56 442.228 1507.98 441.696C1507.41 441.143 1506.62 440.867 1505.62 440.867C1504.45 440.867 1503.5 441.225 1502.76 441.941C1502.03 442.637 1501.65 443.527 1501.63 444.612V454.465H1498.01Z" fill="#222223"></path><path d="M1198.16 477.914L1210.43 470.826V485.003L1198.16 477.914ZM1514.42 479.142H1209.21V476.686H1514.42V479.142Z" fill="#222223"></path><defs><clipPath id="clip0_3815_3442"><rect width="77" height="77" fill="white" transform="matrix(-1 0 0 1 1689.53 482.278)"></rect></clipPath></defs></svg> 